<svg xmlns="http://www.w3.org/2000/svg" viewBox="0 0 512.001 512.001"><path 
d="M501.926 256.005l-31.462 18.787c-24.908 14.88-33.476 46.866-
19.33 72.207l17.86 32.006-36.587.503c-29.046.403-52.494 23.861-
52.896 52.906L379.008 469l-32.016-17.87c-25.331-14.135-57.316-5.568-
72.196 19.34l-18.797 31.462-18.797-31.462c
-14.88-24.908-46.866-33.476
-72.196-19.34L132.99 469l-.503-36.587c-.393-29.046-23.851-52.504-
52.896-52.906l-36.587-.503 17.86-32.006c14.145-25.341 5.578-57.326-
19.33-72.207l-31.462-18.787 31.462-18.797c24.908-14.88 33.476-46.866 
19.33-72.196l-17.86-32.016 36.587-.503c29.046-.403 52.504-23.851 
52.896-52.907L132.99 43l32.016 17.87c25.331 14.145 57.316 5.578 
72.196-19.33l18.797-31.472 18.797 31.472c14.88 24.908 46.866 33.476 
72.196 19.33l32.016-17.86.503 36.576c.403 29.056 23.851 52.504 
52.896 52.907l36.587.503-17.86 32.016c-14.145 25.331-5.578 57.316 
19.33 72.196l31.462 18.797zm-103.528 53.722c29.67-78.65-10.038-166.452-
88.678-196.122s-166.452 10.028-196.122 88.678c-29.67 78.64 10.038 166.442 
88.678 196.111s166.453-10.027 196.122-88.667z" fill="#ff8749"/>
<path d="M309.721 113.605c78.64 29.67 118.347 117.472 88.678 196.122-29.67 78.64-117.482 118.337-196.122 88.667S83.93 280.923 113.599 202.283c29.67-78.65 117.482-118.347 196.122-88.678z" fill="#ffc365"/><path d="M313.276 104.185c-40.552-15.298-84.633-13.89-124.127 3.965-39.495 17.856-69.67 50.025-84.969 90.578-15.299 40.549-13.89 84.63 3.968 124.121 17.857 39.49 50.025 69.664 90.575 84.964 18.803 7.094 38.104 10.453 57.105 10.453 65.595 0 127.502-40.08 151.991-104.986 31.579-83.711-10.833-177.511-94.543-209.095zm75.703 201.988c-27.665 73.321-109.826 110.465-183.148 82.802-35.518-13.401-63.694-39.83-79.336-74.42-15.642-34.59-16.877-73.2-3.476-108.718 13.4-35.521 39.831-63.698 74.424-79.339 18.698-8.454 38.568-12.699 58.491-12.699 16.936 0 33.911 3.068 50.231 9.225 73.325 27.665 110.475 109.825 82.814 183.149z"/><path d="M340.05 179.821c-4.437 3.35-5.319 9.663-1.969 14.101 16.778 22.226 23.923 50.667 19.601 78.033-.867 5.493 2.882 10.648 8.374 11.516.532.084 1.061.125 1.583.125 4.868 0 9.149-3.539 9.932-8.498 5.169-32.735-3.368-66.743-23.42-93.306-3.348-4.439-9.661-5.324-14.101-1.971z"/><path d="M507.09 247.362l-31.462-18.797c-20.373-12.171-27.271-37.932-15.701-58.649l17.859-32.016a10.067 10.067 0 00-8.655-14.972l-36.586-.503c-23.764-.33-42.64-19.208-42.97-42.979l-.503-36.576a10.066 10.066 0 00-14.972-8.654L342.084 52.08c-20.717 11.568-46.474 4.668-58.645-15.703L264.642 4.905a10.07 10.07 0 00-17.286.001L228.56 36.377c-12.171 20.372-37.932 27.27-58.646 15.703l-32.016-17.87a10.066 10.066 0 00-14.974 8.654l-.503 36.59c-.321 23.768-19.195 42.645-42.969 42.976l-36.587.503a10.066 10.066 0 00-8.654 14.972l17.862 32.019c11.567 20.715 4.669 46.474-15.704 58.645l-31.46 18.795a10.067 10.067 0 00.002 17.286l31.461 18.786c20.371 12.17 27.269 37.935 15.702 58.657l-17.86 32.006a10.067 10.067 0 008.654 14.973l36.586.503c23.774.33 42.648 19.207 42.97 42.979l.503 36.587a10.066 10.066 0 0014.974 8.653l32.015-17.87c20.717-11.559 46.477-4.658 58.647 15.712l18.797 31.462a10.066 10.066 0 0017.285 0l18.797-31.462c12.169-20.371 37.932-27.273 58.646-15.713l32.016 17.87a10.066 10.066 0 0014.974-8.653l.503-36.586c.33-23.771 19.204-42.649 42.969-42.98l36.587-.503a10.069 10.069 0 008.653-14.973l-17.86-32.008c-11.567-20.721-4.669-46.485 15.701-58.654l31.462-18.787a10.07 10.07 0 004.906-8.643 10.085 10.085 0 00-4.909-8.644zm-41.79 18.786c-14.307 8.548-24.561 22.121-28.872 38.219-4.311 16.1-2.21 32.982 5.914 47.536l9.634 17.264-19.709.272c-16.683.232-32.37 6.859-44.17 18.661-11.797 11.802-18.422 27.489-18.654 44.174l-.272 19.706-17.274-9.643c-14.551-8.12-31.433-10.218-47.528-5.904-16.098 4.312-29.67 14.566-38.218 28.873l-10.153 16.996-10.153-16.996c-8.547-14.306-22.12-24.56-38.217-28.873a63.961 63.961 0 00-16.564-2.191c-10.739 0-21.36 2.735-30.966 8.096l-17.274 9.642-.272-19.703c-.226-16.684-6.849-32.373-18.651-44.177-11.801-11.802-27.488-18.429-44.174-18.661l-19.708-.272 9.634-17.263c8.124-14.555 10.225-31.437 5.914-47.537-4.311-16.098-14.564-29.672-28.874-38.221l-16.989-10.145 16.991-10.151c14.307-8.548 24.562-22.12 28.873-38.218 4.311-16.099 2.21-32.979-5.913-47.527l-9.638-17.275 19.711-.272c16.686-.232 32.373-6.857 44.173-18.657 11.803-11.803 18.426-27.492 18.651-44.179l.272-19.706 17.272 9.641c14.55 8.126 31.43 10.226 47.529 5.915 16.097-4.311 29.671-14.564 38.219-28.874l10.152-17L266.151 46.7c8.548 14.307 22.121 24.562 38.219 28.873 16.098 4.309 32.978 2.211 47.526-5.913l17.275-9.638.272 19.701c.231 16.688 6.857 32.377 18.655 44.177 11.797 11.8 27.484 18.425 44.17 18.657l19.71.272-9.634 17.271c-8.126 14.551-10.227 31.431-5.916 47.53 4.31 16.097 14.564 29.67 28.872 38.217l16.991 10.151-16.991 10.15z"/><circle cx="318.938" cy="164.368" r="10.068"/></svg>